<?xml version="1.0" encoding="utf-8"?>
<!-- Generator: Adobe Illustrator 26.0.1, SVG Export Plug-In . SVG Version: 6.00 Build 0)  -->
<svg version="1.1" id="Layer_1" xmlns="http://www.w3.org/2000/svg" xmlns:xlink="http://www.w3.org/1999/xlink" x="0px" y="0px"
	 viewBox="0 0 70 70" style="enable-background:new 0 0 70 70;" xml:space="preserve">
<style type="text/css">
	.st0{clip-path:url(#SVGID_00000164477954935848380070000007944796642387623065_);}
	.st1{fill:#F1545A;}
	.st2{fill:#FDC040;}
	.st3{fill:none;stroke:#000000;stroke-linecap:round;stroke-linejoin:round;}
</style>
<g>
	<defs>
		<rect id="SVGID_1_" x="0.8" width="69.2" height="69.2"/>
	</defs>
	<clipPath id="SVGID_00000029751508000902657130000000837641744996602522_">
		<use xlink:href="#SVGID_1_"  style="overflow:visible;"/>
	</clipPath>
	<g style="clip-path:url(#SVGID_00000029751508000902657130000000837641744996602522_);">
		<path class="st1" d="M15.9,48.4c-0.6-0.5-1.4-0.4-1.9,0.2l-3.4,4l-1.2-1c-0.6-0.5-1.4-0.4-1.9,0.2c-0.5,0.6-0.4,1.4,0.2,1.9
			l2.3,1.9c0.2,0.2,0.6,0.3,0.9,0.3c0,0,0.1,0,0.1,0c0.4,0,0.7-0.2,0.9-0.5l4.3-5.1C16.6,49.8,16.5,48.9,15.9,48.4z"/>
		<path class="st2" d="M44,22v4c0,0.5-2,2-2.5,2h-9c-0.8-0.2-2.5-0.2-2.5,1v3.5L28,33c-0.5,0.3-1.5,1.1-1.5,1.5c0,0.5-0.5,1.5,0,2
			s1.5,1,2,1.5s1.5,0,1.5,0.5v2c0,0.4,0.3,1.5,0.5,2c0.3,0.3,1.1,1,1.5,1c0.4,0,1.2,0.3,1.5,0.5v1.5c0,0.4,0.7,1.5,1,2
			c0.5,0.3,1.7,1,2.5,1c1,0,9.5,1,11,1c1.2,0,5.2-0.7,7-1l3.5-2.5l5-1h3l2-1v-2.5L69,31l-1-2h-3.5c-0.4,0-2.2-1.3-3-2
			c-0.7-0.5-2-1.6-2-2s-3-1.8-4.5-2.5L53,22h-5h-2.5H44z"/>
		<path class="st2" d="M26,8v12l4-1.5l1.5-1l5,2.5l1.5-1.5L37.5,9L36,8h-5H26z"/>
		<path class="st3" d="M44,22c0,1.2,0,3.6,0,4 M44,22v4 M44,22h1.5 M44,26c0,0.5-2,2-2.5,2 M41.5,28c-0.4,0-6.2,0-9,0 M41.5,28h-9
			 M32.5,28c-0.8-0.2-2.5-0.2-2.5,1 M30,29c0,1.2,0,2.8,0,3.5 M30,29v3.5 M30,32.5L28,33c-0.5,0.3-1.5,1.1-1.5,1.5
			c0,0.5-0.5,1.5,0,2s1.5,1,2,1.5s1.5,0,1.5,0.5 M30,38.5c0,0.5,0,1.5,0,2 M30,38.5v2 M30,40.5c0,0.4,0.3,1.5,0.5,2
			c0.3,0.3,1.1,1,1.5,1c0.4,0,1.2,0.3,1.5,0.5 M33.5,44c0,0.3,0,1.1,0,1.5 M33.5,44v1.5 M33.5,45.5c0,0.4,0.7,1.5,1,2
			c0.5,0.3,1.7,1,2.5,1c1,0,9.5,1,11,1c1.2,0,5.2-0.7,7-1l3.5-2.5l5-1h3l2-1v-2.5L69,31l-1-2 M68,29c-1,0-3.1,0-3.5,0 M68,29h-3.5
			 M64.5,29c-0.4,0-2.2-1.3-3-2c-0.7-0.5-2-1.6-2-2s-3-1.8-4.5-2.5L53,22h-5h-2.5 M45.5,22h-2 M26,8c0,0.4,0,8.2,0,12 M26,8h5h5
			l1.5,1l0.5,9.5L36.5,20l-5-2.5l-1.5,1L26,20 M26,8v12"/>
		<path class="st1" d="M67.1,27.6h-1.9c-1.6-0.1-2.9-1.5-4.4-3.1c-1-1.1-2.1-2.2-3.4-3.1V9.9c0-2-1.7-3.7-3.7-3.7H9.6
			c-2,0-3.7,1.7-3.7,3.7v9.4c0,0.7,0.6,1.4,1.4,1.4s1.4-0.6,1.4-1.4V9.9c0-0.5,0.5-1,1-1h15v12c0,0.5,0.3,0.9,0.7,1.2
			c0.2,0.1,0.4,0.2,0.7,0.2c0.2,0,0.5-0.1,0.7-0.2l5-3.1l5,3.1c0.4,0.3,0.9,0.3,1.4,0c0.4-0.2,0.7-0.7,0.7-1.2v-12h15
			c0.5,0,1,0.5,1,1v10.4c-0.4-0.1-0.9-0.1-1.4-0.2c0,0,0,0,0,0h-3.4h-2.7h-1.5c0,0,0,0,0,0c-1.6,0-2.5,0.8-2.9,1.4
			c-0.6,1-0.7,2.2-0.2,3.6c0.1,0.3,0.3,0.6,0.5,0.9H32.8c-2.2,0-4,1.8-4,4c0,0.5,0.1,0.9,0.2,1.3h-0.4c-2.2,0-4,1.8-4,4
			c0,2.2,1.8,4,4,4H29c-0.1,0.4-0.2,0.8-0.2,1.3c0,2.1,1.7,3.9,3.8,4c-0.1,0.4-0.2,0.8-0.2,1.3c0,2.2,1.8,4,4,4h16.7
			c0.6,0,1.1-0.1,1.6-0.2V54c0,0.5-0.5,1-1,1H22.4c0.3-0.9,0.4-1.9,0.4-3c0-6.1-4.9-11-11-11c-1.1,0-2.2,0.2-3.2,0.5V31.4
			c0-0.7-0.6-1.4-1.4-1.4s-1.4,0.6-1.4,1.4v11.3c-3.1,2-5.1,5.4-5.1,9.3c0,6.1,4.9,11,11,11c4,0,7.5-2.1,9.4-5.3h32.5
			c2,0,3.7-1.7,3.7-3.7v-5.6c0.3-0.2,0.6-0.4,0.9-0.6c1.2-0.9,2.2-1.7,3.9-1.7h5.1c1.6,0,2.9-1.3,2.9-2.9V30.4
			C70,28.9,68.7,27.6,67.1,27.6z M36,18.4l-3.7-2.3c-0.4-0.3-1-0.3-1.4,0l-3.7,2.3V8.9H36V18.4z M11.8,60.3c-4.6,0-8.3-3.7-8.3-8.3
			c0-4.6,3.7-8.3,8.3-8.3c4.6,0,8.3,3.7,8.3,8.3C20.1,56.6,16.4,60.3,11.8,60.3z M67.3,43.2c0,0.1-0.1,0.2-0.2,0.2h-5.1
			c-2.6,0-4.1,1.2-5.5,2.3c-1.2,0.9-2.1,1.6-3.5,1.6H36.3c-0.7,0-1.3-0.6-1.3-1.3c0-0.7,0.6-1.3,1.3-1.3h4.5c0.7,0,1.4-0.6,1.4-1.4
			c0-0.7-0.6-1.4-1.4-1.4h-8.1c-0.7,0-1.3-0.6-1.3-1.3c0-0.7,0.6-1.3,1.3-1.3h8.1c0.7,0,1.4-0.6,1.4-1.4c0-0.7-0.6-1.4-1.4-1.4H28.6
			c-0.7,0-1.3-0.6-1.3-1.3c0-0.7,0.6-1.3,1.3-1.3h12.2c0.7,0,1.4-0.6,1.4-1.4c0-0.7-0.6-1.4-1.4-1.4h-8.1c-0.7,0-1.3-0.6-1.3-1.3
			c0-0.7,0.6-1.3,1.3-1.3h15.1h2.9h2c0.7,0,1.4-0.6,1.4-1.4c0-0.7-0.6-1.4-1.4-1.4h-2h-2.9c-1.2,0-2.3-0.7-2.8-1.9
			c-0.3-0.7-0.2-1-0.1-1.2c0.1-0.1,0.3-0.2,0.7-0.2h4.2h3.4c2.3,0,3.9,1.7,5.6,3.5c1.8,1.9,3.6,3.8,6.3,3.9c0,0,0,0,0.1,0h2
			c0.1,0,0.2,0.1,0.2,0.2L67.3,43.2L67.3,43.2z"/>
		<path class="st1" d="M7.2,26.7c0.7,0,1.4-0.6,1.4-1.4C8.6,24.6,8,24,7.2,24s-1.4,0.6-1.4,1.4v0C5.9,26.1,6.5,26.7,7.2,26.7z"/>
	</g>
</g>
</svg>
