<?xml version="1.0" encoding="utf-8"?>
<!-- Generator: Adobe Illustrator 26.0.1, SVG Export Plug-In . SVG Version: 6.00 Build 0)  -->
<svg version="1.1" id="Layer_1" xmlns="http://www.w3.org/2000/svg" xmlns:xlink="http://www.w3.org/1999/xlink" x="0px" y="0px"
	 viewBox="0 0 70 70" style="enable-background:new 0 0 70 70;" xml:space="preserve">
<style type="text/css">
	.st0{clip-path:url(#SVGID_00000110458817076730096280000016990537367701949611_);}
	.st1{fill:#FDC040;}
	.st2{fill:#F1545A;}
</style>
<g>
	<defs>
		<rect id="SVGID_1_" x="0.4" width="69.2" height="69.2"/>
	</defs>
	<clipPath id="SVGID_00000165947176400730187350000015728603075078393271_">
		<use xlink:href="#SVGID_1_"  style="overflow:visible;"/>
	</clipPath>
	<g style="clip-path:url(#SVGID_00000165947176400730187350000015728603075078393271_);">
		<circle class="st1" cx="47" cy="49" r="18"/>
		<path class="st2" d="M50.6,30V16.9c0-0.4-0.2-0.7-0.4-1L35.5,0.4C35.3,0.2,34.9,0,34.5,0H11.2C6.9,0,3.5,3.5,3.5,7.8v44
			c0,4.3,3.4,7.7,7.7,7.7h18.4c3.5,5.8,9.8,9.6,17,9.6c10.9,0,19.9-8.9,19.9-19.8C66.4,39.8,59.6,31.8,50.6,30z M35.9,5.1l9.8,10.4
			h-6.4c-1.9,0-3.5-1.6-3.5-3.5V5.1z M11.2,56.7c-2.7,0-4.8-2.2-4.8-4.9v-44c0-2.7,2.1-4.9,4.8-4.9H33V12c0,3.5,2.8,6.4,6.3,6.4h8.4
			v11.3c-0.4,0-0.8-0.1-1.2-0.1c-5,0-9.7,1.9-13.2,5H15.1c-0.8,0-1.4,0.6-1.4,1.4c0,0.8,0.6,1.4,1.4,1.4h15.6
			c-1,1.4-1.9,2.9-2.5,4.5H15.1c-0.8,0-1.4,0.6-1.4,1.4c0,0.8,0.6,1.4,1.4,1.4h12.2c-0.4,1.4-0.5,3-0.5,4.6c0,2.6,0.5,5.2,1.4,7.3
			L11.2,56.7L11.2,56.7z M46.6,66.3c-9.3,0-16.9-7.6-16.9-16.9c0-9.3,7.6-16.9,16.9-16.9c9.4,0,16.9,7.6,16.9,16.9
			C63.5,58.7,55.9,66.3,46.6,66.3z"/>
		<path class="st2" d="M15.1,30.1h14.6c0.8,0,1.4-0.6,1.4-1.4c0-0.8-0.6-1.4-1.4-1.4H15.1c-0.8,0-1.4,0.6-1.4,1.4
			C13.7,29.5,14.3,30.1,15.1,30.1z"/>
		<path class="st2" d="M46.1,40.5c0.1,0,0.2,0,0.3,0c0.1,0,0.3,0,0.4-0.1c1.9,0.2,3.4,1.7,3.4,3.7c0,0.8,0.6,1.4,1.4,1.4
			c0.8,0,1.4-0.6,1.4-1.4c0-3.2-2.2-5.8-5.2-6.4v-0.9c0-0.8-0.6-1.4-1.4-1.4c-0.8,0-1.4,0.6-1.4,1.4v1c-2.9,0.7-5,3.3-5,6.4
			c0,3.6,3,6.6,6.6,6.6c2,0,3.7,1.7,3.7,3.7c0,2-1.6,3.7-3.7,3.7c-2,0-3.7-1.7-3.7-3.7c0-0.8-0.6-1.4-1.4-1.4
			c-0.8,0-1.4,0.6-1.4,1.4c0,3.1,2.1,5.7,5,6.4v1.5c0,0.8,0.6,1.4,1.4,1.4c0.8,0,1.4-0.6,1.4-1.4v-1.4c3-0.6,5.2-3.3,5.2-6.4
			c0-3.6-3-6.6-6.6-6.6c-2,0-3.7-1.7-3.7-3.7C42.9,42.3,44.3,40.7,46.1,40.5z"/>
	</g>
</g>
</svg>
